# xmcd
#
# Track frame offsets:
#	150
#	11640
#	28583
#	48057
#	61658
#	78454
#	95869
#	107350
#	124318
#	143776
#	157227
#	174029
#
# Disc length: 2551 seconds
#
# Revision: 1
# Processed by: cddbd v1.5.2PL0 Copyright (c) Steve Scherf et al.
# Submitted via: audiograbber 1.83.01
#
DISCID=9209f50c
DTITLE=CBCDG-20545 - Country Chartbusters Vol. 545
DYEAR=2003
DGENRE=
TTITLE0=Dixie Chicks - White Trash Wedding (vocal version)
TTITLE1=Deana Carter - I'm Just A Girl (vocal version)
TTITLE2=Terri Clark - Three Mississippi (vocal version)
TTITLE3=Jeannie Kendall - That's What Your Love Does To Me (vocal version)
TTITLE4=Allison Paige - Send A Message (vocal version)
TTITLE5=Jennifer Hanson - This Far Gone (vocal version)
TTITLE6=Dixie Chicks - White Trash Wedding (karaoke version)
TTITLE7=Deana Carter - I'm Just A Girl (karaoke version)
TTITLE8=Terri Clark - Three Mississippi (karaoke version)
TTITLE9=Jeannie Kendall - That's What Your Love Does To Me (karaoke version)
TTITLE10=Allison Paige - Send A Message (karaoke version)
TTITLE11=Jennifer Hanson - This Far Gone (karaoke version)
EXTD=
EXTT0=
EXTT1=
EXTT2=
EXTT3=
EXTT4=
EXTT5=
EXTT6=
EXTT7=
EXTT8=
EXTT9=
EXTT10=
EXTT11=
PLAYORDER=
